<?xml version="1.0" standalone="no"?><svg xmlns="http://www.w3.org/2000/svg" viewBox="0 0 1440 320"><path fill="#37434B" fill-opacity="0.6" d="M0,224L18.5,192C36.9,160,74,96,111,69.3C147.7,43,185,53,222,58.7C258.5,64,295,64,332,69.3C369.2,75,406,85,443,85.3C480,85,517,75,554,112C590.8,149,628,235,665,261.3C701.5,288,738,256,775,208C812.3,160,849,96,886,106.7C923.1,117,960,203,997,240C1033.8,277,1071,267,1108,229.3C1144.6,192,1182,128,1218,106.7C1255.4,85,1292,107,1329,106.7C1366.2,107,1403,85,1422,74.7L1440,64L1440,0L1421.5,0C1403.1,0,1366,0,1329,0C1292.3,0,1255,0,1218,0C1181.5,0,1145,0,1108,0C1070.8,0,1034,0,997,0C960,0,923,0,886,0C849.2,0,812,0,775,0C738.5,0,702,0,665,0C627.7,0,591,0,554,0C516.9,0,480,0,443,0C406.2,0,369,0,332,0C295.4,0,258,0,222,0C184.6,0,148,0,111,0C73.8,0,37,0,18,0L0,0Z"></path></svg>