<?xml version="1.0" standalone="no"?><svg xmlns="http://www.w3.org/2000/svg" viewBox="0 0 1440 320"><path fill="#37434B" fill-opacity="1" d="M0,160L16,160C32,160,64,160,96,181.3C128,203,160,245,192,256C224,267,256,245,288,218.7C320,192,352,160,384,154.7C416,149,448,171,480,149.3C512,128,544,64,576,48C608,32,640,64,672,80C704,96,736,96,768,122.7C800,149,832,203,864,234.7C896,267,928,277,960,266.7C992,256,1024,224,1056,176C1088,128,1120,64,1152,53.3C1184,43,1216,85,1248,128C1280,171,1312,213,1344,224C1376,235,1408,213,1424,202.7L1440,192L1440,320L1424,320C1408,320,1376,320,1344,320C1312,320,1280,320,1248,320C1216,320,1184,320,1152,320C1120,320,1088,320,1056,320C1024,320,992,320,960,320C928,320,896,320,864,320C832,320,800,320,768,320C736,320,704,320,672,320C640,320,608,320,576,320C544,320,512,320,480,320C448,320,416,320,384,320C352,320,320,320,288,320C256,320,224,320,192,320C160,320,128,320,96,320C64,320,32,320,16,320L0,320Z"></path></svg>