<?xml version="1.0" standalone="no"?><svg xmlns="http://www.w3.org/2000/svg" viewBox="0 0 1440 320"><path fill="#273036" fill-opacity="1" d="M0,128L26.7,138.7C53.3,149,107,171,160,154.7C213.3,139,267,85,320,101.3C373.3,117,427,203,480,208C533.3,213,587,139,640,133.3C693.3,128,747,192,800,229.3C853.3,267,907,277,960,282.7C1013.3,288,1067,288,1120,240C1173.3,192,1227,96,1280,69.3C1333.3,43,1387,85,1413,106.7L1440,128L1440,320L1413.3,320C1386.7,320,1333,320,1280,320C1226.7,320,1173,320,1120,320C1066.7,320,1013,320,960,320C906.7,320,853,320,800,320C746.7,320,693,320,640,320C586.7,320,533,320,480,320C426.7,320,373,320,320,320C266.7,320,213,320,160,320C106.7,320,53,320,27,320L0,320Z"></path></svg>