<?xml version="1.0" standalone="no"?><svg xmlns="http://www.w3.org/2000/svg" viewBox="0 0 1440 320"><path fill="#37434B" fill-opacity="1" d="M0,32L16,64C32,96,64,160,96,192C128,224,160,224,192,218.7C224,213,256,203,288,186.7C320,171,352,149,384,160C416,171,448,213,480,218.7C512,224,544,192,576,192C608,192,640,224,672,197.3C704,171,736,85,768,53.3C800,21,832,43,864,74.7C896,107,928,149,960,181.3C992,213,1024,235,1056,202.7C1088,171,1120,85,1152,74.7C1184,64,1216,128,1248,149.3C1280,171,1312,149,1344,154.7C1376,160,1408,192,1424,208L1440,224L1440,320L1424,320C1408,320,1376,320,1344,320C1312,320,1280,320,1248,320C1216,320,1184,320,1152,320C1120,320,1088,320,1056,320C1024,320,992,320,960,320C928,320,896,320,864,320C832,320,800,320,768,320C736,320,704,320,672,320C640,320,608,320,576,320C544,320,512,320,480,320C448,320,416,320,384,320C352,320,320,320,288,320C256,320,224,320,192,320C160,320,128,320,96,320C64,320,32,320,16,320L0,320Z"></path></svg>