<?xml version="1.0" standalone="no"?><svg xmlns="http://www.w3.org/2000/svg" viewBox="0 0 1440 320"><path fill="#37434B" fill-opacity="1" d="M0,0L16,21.3C32,43,64,85,96,122.7C128,160,160,192,192,218.7C224,245,256,267,288,282.7C320,299,352,309,384,282.7C416,256,448,192,480,165.3C512,139,544,149,576,181.3C608,213,640,267,672,272C704,277,736,235,768,229.3C800,224,832,256,864,234.7C896,213,928,139,960,122.7C992,107,1024,149,1056,138.7C1088,128,1120,64,1152,42.7C1184,21,1216,43,1248,74.7C1280,107,1312,149,1344,165.3C1376,181,1408,171,1424,165.3L1440,160L1440,320L1424,320C1408,320,1376,320,1344,320C1312,320,1280,320,1248,320C1216,320,1184,320,1152,320C1120,320,1088,320,1056,320C1024,320,992,320,960,320C928,320,896,320,864,320C832,320,800,320,768,320C736,320,704,320,672,320C640,320,608,320,576,320C544,320,512,320,480,320C448,320,416,320,384,320C352,320,320,320,288,320C256,320,224,320,192,320C160,320,128,320,96,320C64,320,32,320,16,320L0,320Z"></path></svg>